<svg width="16" height="16" viewBox="0 0 16 16" fill="none" xmlns="http://www.w3.org/2000/svg">
<path d="M0.999756 4H8.99977M8.99977 4C8.99977 5.65686 10.3429 7 11.9998 7C13.6567 7 14.9998 5.65686 14.9998 4C14.9998 2.34315 13.6567 1 11.9998 1C10.3429 1 8.99977 2.34316 8.99977 4ZM6.99976 12H14.9998M6.99976 12C6.99976 13.6569 5.65661 15 3.99976 15C2.3429 15 0.999756 13.6569 0.999756 12C0.999756 10.3432 2.3429 9.00001 3.99976 9.00001C5.65661 9.00001 6.99976 10.3432 6.99976 12Z" stroke="white" stroke-width="1.33333" stroke-linecap="round" stroke-linejoin="round"/>
</svg>
